<svg xmlns="http://www.w3.org/2000/svg" viewBox="0 0 1200 675" width="100%" height="100%">
  <defs>
    <linearGradient id="bg" x1="0%" y1="0%" x2="100%" y2="100%">
      <stop offset="0%" stop-color="#0F172A" />
      <stop offset="100%" stop-color="#1E1B4B" />
    </linearGradient>
    <linearGradient id="purpleGrad" x1="0%" y1="0%" x2="100%" y2="0%">
      <stop offset="0%" stop-color="#8B5CF6" />
      <stop offset="100%" stop-color="#EC4899" />
    </linearGradient>
  </defs>
  <rect width="1200" height="675" fill="url(#bg)" />
  <circle cx="900" cy="200" r="250" fill="#8B5CF6" opacity="0.15" filter="blur(60px)" />
  <rect x="60" y="40" width="1080" height="595" rx="16" fill="rgba(15, 23, 42, 0.9)" stroke="rgba(255,255,255,0.1)" stroke-width="1.5" />
  <rect x="60" y="40" width="1080" height="56" fill="rgba(30, 41, 59, 0.6)" />
  <text x="180" y="73" fill="#F8FAFC" font-family="system-ui, sans-serif" font-weight="700" font-size="16">Speech Emotion Recognition Dashboard</text>
  
  <rect x="100" y="130" width="1000" height="220" rx="12" fill="rgba(30, 41, 59, 0.5)" stroke="rgba(255,255,255,0.08)" />
  <text x="130" y="170" fill="#F8FAFC" font-family="system-ui, sans-serif" font-weight="700" font-size="18">Audio Waveform &amp; MFCC Feature Spectrogram</text>
  <path d="M 130 250 Q 200 180, 270 280 T 400 220 T 550 300 T 700 200 T 850 270 T 1000 240" fill="none" stroke="url(#purpleGrad)" stroke-width="4" />
  
  <g transform="translate(100, 380)">
    <rect x="0" y="0" width="480" height="220" rx="12" fill="rgba(30, 41, 59, 0.5)" stroke="rgba(255,255,255,0.08)" />
    <text x="25" y="40" fill="#F8FAFC" font-family="system-ui, sans-serif" font-weight="700" font-size="16">Predicted Emotion Confidence</text>
    <text x="25" y="85" fill="#8B5CF6" font-family="system-ui, sans-serif" font-weight="800" font-size="32">Happy / Joyful (94.2%)</text>
    <rect x="25" y="110" width="430" height="12" rx="6" fill="rgba(255,255,255,0.1)" />
    <rect x="25" y="110" width="400" height="12" rx="6" fill="url(#purpleGrad)" />
  </g>
</svg>
